<svg width="500" height="500" viewBox="0 0 500 500" fill="none" xmlns="http://www.w3.org/2000/svg">
<path d="M500 382.398H0V382.648H500V382.398Z" fill="#EBEBEB"/>
<path d="M449.901 398.494H416.779V398.744H449.901V398.494Z" fill="#EBEBEB"/>
<path d="M331.22 401.208H322.527V401.458H331.22V401.208Z" fill="#EBEBEB"/>
<path d="M415.778 389.208H396.586V389.458H415.778V389.208Z" fill="#EBEBEB"/>
<path d="M95.652 390.888H52.459V391.138H95.652V390.888Z" fill="#EBEBEB"/>
<path d="M110.889 390.888H104.556V391.138H110.889V390.888Z" fill="#EBEBEB"/>
<path d="M225.147 395.111H131.471V395.361H225.147V395.111Z" fill="#EBEBEB"/>
<path d="M237.014 337.8H43.915C40.768 337.8 38.207 335.239 38.207 332.092V60.66C38.207 57.513 40.768 54.952 43.915 54.952H237.014C240.16 54.952 242.721 57.513 242.721 60.66V332.092C242.721 335.239 240.16 337.8 237.014 337.8ZM43.915 55.203C40.905 55.203 38.457 57.651 38.457 60.661V332.093C38.457 335.103 40.905 337.551 43.915 337.551H237.014C240.023 337.551 242.471 335.103 242.471 332.093V60.66C242.471 57.651 240.023 55.202 237.014 55.202L43.915 55.203Z" fill="#EBEBEB"/>
<path d="M453.31 337.8H260.212C257.065 337.8 254.505 335.239 254.505 332.092V60.66C254.505 57.513 257.066 54.952 260.212 54.952H453.31C456.458 54.952 459.018 57.513 459.018 60.66V332.092C459.019 335.239 456.458 337.8 453.31 337.8ZM260.212 55.203C257.203 55.203 254.755 57.651 254.755 60.661V332.093C254.755 335.103 257.203 337.551 260.212 337.551H453.31C456.32 337.551 458.768 335.103 458.768 332.093V60.66C458.768 57.651 456.32 55.202 453.31 55.202L260.212 55.203Z" fill="#EBEBEB"/>
<path d="M156.516 292.522L142.67 304.103L162.4 332.776L178.164 323.981C186.489 331.95 196.316 338.466 207.349 342.965L205.753 360.895L239.977 367.218L244.893 349.903C256.805 349.645 268.311 347.067 278.932 342.6L290.515 356.447L319.186 336.717L310.393 320.953C318.362 312.627 324.878 302.802 329.376 291.769L347.305 293.364L353.63 259.14L336.314 254.223C336.055 242.311 333.48 230.804 329.013 220.181L342.859 208.601L323.131 179.928L307.367 188.72C299.041 180.755 289.216 174.235 278.182 169.738L279.778 151.808L245.554 145.484L240.636 162.801C228.726 163.061 217.217 165.637 206.596 170.102L195.015 156.258L166.342 175.988L175.134 191.754C167.167 200.077 160.651 209.902 156.15 220.937L138.221 219.342L131.897 253.565L149.215 258.483C149.473 270.394 152.049 281.899 156.516 292.522ZM196.431 247.793C201.159 222.205 225.735 205.294 251.322 210.022C276.912 214.75 293.823 239.326 289.096 264.914C284.368 290.502 259.792 307.413 234.202 302.686C208.615 297.957 191.704 273.38 196.431 247.793Z" fill="#F0F0F0"/>
<path d="M387.381 274.831L398.2 276.83L399.753 271.357C403.519 271.275 407.156 270.46 410.514 269.048L414.175 273.426L423.238 267.188L420.458 262.205C422.977 259.574 425.037 256.467 426.459 252.98L432.126 253.485L434.125 242.667L428.652 241.113C428.57 237.347 427.756 233.709 426.343 230.353L430.72 226.692L424.483 217.628L419.5 220.408C416.868 217.891 413.763 215.829 410.274 214.407L410.779 208.741L399.96 206.741L398.407 212.215C394.641 212.298 391.004 213.112 387.646 214.523L383.985 210.147L374.922 216.385L377.702 221.369C375.184 224 373.123 227.105 371.701 230.594L366.033 230.089L364.034 240.907L369.508 242.461C369.589 246.226 370.404 249.864 371.815 253.221L367.439 256.882L373.675 265.946L378.658 263.165C381.29 265.683 384.397 267.744 387.885 269.165L387.381 274.831ZM384.435 239.078C385.93 230.99 393.698 225.645 401.786 227.139C409.876 228.633 415.22 236.401 413.727 244.49C412.232 252.579 404.464 257.924 396.374 256.43C388.286 254.936 382.94 247.167 384.435 239.078Z" fill="#F0F0F0"/>
<path d="M83.701 305.644L91.942 307.166L93.125 302.997C95.994 302.934 98.764 302.314 101.322 301.238L104.111 304.573L111.015 299.821L108.898 296.025C110.817 294.021 112.386 291.654 113.469 288.998L117.785 289.382L119.308 281.141L115.139 279.957C115.076 277.088 114.456 274.317 113.38 271.76L116.714 268.971L111.963 262.066L108.167 264.183C106.162 262.266 103.797 260.695 101.139 259.612L101.524 255.296L93.283 253.772L92.1 257.942C89.231 258.005 86.46 258.625 83.903 259.7L81.114 256.366L74.21 261.117L76.327 264.913C74.409 266.917 72.839 269.283 71.756 271.94L67.439 271.556L65.917 279.797L70.087 280.981C70.149 283.849 70.769 286.62 71.844 289.178L68.51 291.967L73.26 298.872L77.056 296.754C79.061 298.672 81.428 300.242 84.085 301.325L83.701 305.644ZM81.457 278.409C82.595 272.248 88.513 268.176 94.674 269.314C100.836 270.452 104.907 276.37 103.77 282.531C102.631 288.693 96.714 292.765 90.552 291.626C84.391 290.489 80.319 284.571 81.457 278.409Z" fill="#F0F0F0"/>
<path d="M230.854 122.017L237.089 123.169L237.984 120.014C240.154 119.967 242.251 119.497 244.186 118.683L246.296 121.206L251.52 117.611L249.918 114.739C251.37 113.223 252.557 111.432 253.377 109.422L256.643 109.713L257.795 103.478L254.641 102.582C254.594 100.411 254.124 98.315 253.31 96.38L255.833 94.27L252.238 89.046L249.366 90.648C247.849 89.197 246.059 88.009 244.049 87.189L244.34 83.923L238.105 82.77L237.21 85.925C235.039 85.973 232.943 86.442 231.008 87.255L228.898 84.733L223.674 88.328L225.276 91.2C223.825 92.716 222.637 94.506 221.818 96.517L218.552 96.226L217.4 102.461L220.555 103.356C220.602 105.526 221.071 107.622 221.885 109.558L219.363 111.668L222.957 116.892L225.829 115.289C227.346 116.74 229.137 117.928 231.147 118.747L230.854 122.017ZM229.156 101.411C230.017 96.749 234.495 93.669 239.156 94.53C243.818 95.391 246.899 99.868 246.038 104.53C245.176 109.192 240.699 112.273 236.037 111.411C231.375 110.55 228.294 106.073 229.156 101.411Z" fill="#F0F0F0"/>
<path d="M334.489 172.185L338.648 172.953L339.245 170.849C340.693 170.817 342.091 170.504 343.381 169.962L344.788 171.645L348.272 169.247L347.204 167.332C348.172 166.321 348.964 165.126 349.511 163.786L351.689 163.98L352.457 159.822L350.353 159.225C350.322 157.777 350.009 156.379 349.466 155.089L351.149 153.682L348.752 150.198L346.837 151.266C345.826 150.298 344.632 149.506 343.291 148.959L343.485 146.781L339.326 146.012L338.729 148.116C337.281 148.148 335.883 148.461 334.593 149.003L333.186 147.321L329.702 149.719L330.77 151.635C329.802 152.646 329.01 153.84 328.464 155.181L326.285 154.987L325.517 159.145L327.621 159.742C327.652 161.189 327.965 162.588 328.508 163.878L326.826 165.285L329.223 168.769L331.138 167.7C332.15 168.668 333.344 169.46 334.685 170.007L334.489 172.185ZM333.357 158.443C333.931 155.334 336.918 153.28 340.026 153.854C343.135 154.429 345.19 157.414 344.616 160.523C344.041 163.632 341.055 165.687 337.946 165.112C334.837 164.538 332.782 161.552 333.357 158.443Z" fill="#F0F0F0"/>
<path d="M142.749 122.072L146.908 122.84L147.505 120.736C148.953 120.704 150.351 120.391 151.641 119.849L153.048 121.532L156.532 119.134L155.464 117.219C156.432 116.208 157.224 115.013 157.771 113.673L159.949 113.867L160.717 109.709L158.613 109.112C158.581 107.664 158.269 106.266 157.726 104.976L159.409 103.569L157.012 100.085L155.097 101.153C154.086 100.185 152.892 99.393 151.551 98.846L151.745 96.668L147.587 95.899L146.99 98.003C145.542 98.035 144.144 98.348 142.854 98.89L141.447 97.208L137.963 99.605L139.031 101.521C138.063 102.532 137.271 103.726 136.724 105.067L134.545 104.873L133.777 109.031L135.881 109.628C135.912 111.075 136.225 112.474 136.768 113.764L135.086 115.171L137.483 118.655L139.398 117.586C140.41 118.554 141.604 119.346 142.945 119.892L142.749 122.072ZM141.616 108.329C142.19 105.22 145.177 103.166 148.285 103.74C151.394 104.315 153.449 107.3 152.875 110.409C152.3 113.518 149.314 115.573 146.205 114.998C143.096 114.424 141.042 111.438 141.616 108.329Z" fill="#F0F0F0"/>
<path d="M327.621 343.762C327.675 346.288 328.222 348.728 329.169 350.98L326.232 353.436L330.416 359.515L333.759 357.65C335.525 359.339 337.607 360.722 339.947 361.675L339.609 365.477L346.866 366.817L347.908 363.146C350.434 363.091 352.874 362.544 355.126 361.597L357.581 364.533L363.661 360.35L361.797 357.007C363.486 355.242 364.868 353.158 365.822 350.819L369.623 351.158L370.964 343.901L367.292 342.859C367.237 340.333 366.691 337.893 365.744 335.641L368.68 333.185L364.496 327.106L361.154 328.97C359.389 327.281 357.306 325.899 354.966 324.945L355.304 321.144L348.047 319.803L347.005 323.475C344.479 323.53 342.04 324.076 339.786 325.023L337.331 322.088L331.252 326.271L333.117 329.614C331.428 331.379 330.045 333.463 329.092 335.802L325.29 335.463L323.95 342.72L327.621 343.762ZM337.632 341.495C338.635 336.07 343.846 332.484 349.272 333.487C354.697 334.489 358.283 339.701 357.281 345.126C356.278 350.552 351.068 354.137 345.642 353.135C340.215 352.131 336.63 346.921 337.632 341.495Z" fill="#F0F0F0"/>
<path d="M390.432 300.699L379.259 304.791L390.432 308.85V313.043L374.462 306.971V302.61L390.432 296.537V300.699Z" fill="#E0E0E0"/>
<path d="M402.454 288.284H407.117L396.046 319.889H391.381L402.454 288.284Z" fill="#E0E0E0"/>
<path d="M423.699 302.611V306.972L407.728 313.044V308.851L418.9 304.792L407.728 300.7V296.539L423.699 302.611Z" fill="#E0E0E0"/>
<path d="M112.843 354.076C114.445 354.564 115.177 355.574 115.177 357.979V363.554C115.177 365.191 116.014 366.133 117.721 366.133H118.349V370.383H116.328C111.973 370.383 109.743 368.153 109.743 364.145V357.839C109.743 356.724 109.15 356.2 108.209 356.2H107.058V351.95H108.209C109.149 351.95 109.743 351.427 109.743 350.311V344.004C109.743 339.998 111.973 337.768 116.328 337.768H118.349V342.018H117.721C116.014 342.018 115.177 342.959 115.177 344.597V350.172C115.177 352.577 114.445 353.587 112.843 354.076Z" fill="#E0E0E0"/>
<path d="M140.557 351.95V356.2H139.407C138.466 356.2 137.874 356.723 137.874 357.839V364.145C137.874 368.153 135.644 370.383 131.289 370.383H129.268V366.133H129.896C131.603 366.133 132.44 365.191 132.44 363.554V357.979C132.44 355.574 133.171 354.564 134.774 354.076C133.171 353.588 132.44 352.578 132.44 350.173V344.598C132.44 342.96 131.603 342.019 129.896 342.019H129.268V337.769H131.289C135.644 337.769 137.874 339.999 137.874 344.005V350.312C137.874 351.427 138.467 351.951 139.407 351.951L140.557 351.95Z" fill="#E0E0E0"/>
<path d="M98.489 151.126C98.489 144.274 103.749 139.37 110.829 139.37C114.758 139.37 118.038 140.799 120.181 143.397L116.803 146.514C115.277 144.761 113.362 143.851 111.088 143.851C106.834 143.851 103.814 146.839 103.814 151.125C103.814 155.411 106.834 158.399 111.088 158.399C113.362 158.399 115.278 157.489 116.803 155.703L120.181 158.82C118.038 161.451 114.758 162.88 110.796 162.88C103.749 162.882 98.489 157.978 98.489 151.126Z" fill="#E0E0E0"/>
<path d="M138.313 153.106H132.663V158.627H128.473V153.106H122.856V149.145H128.473V143.624H132.663V149.145H138.313V153.106Z" fill="#E0E0E0"/>
<path d="M157.971 153.106H152.321V158.627H148.132V153.106H142.515V149.145H148.132V143.624H152.321V149.145H157.971V153.106Z" fill="#E0E0E0"/>
<path d="M182.055 265.631L185.343 261.687C186.731 263.549 188.265 264.499 190.092 264.499C192.466 264.499 193.708 263.074 193.708 260.262V248.096H184.722V243.347H199.59V259.933C199.59 266.252 196.412 269.358 190.384 269.358C186.95 269.358 183.919 268.044 182.055 265.631Z" fill="#E0E0E0"/>
<path d="M203.143 267.093L205.044 263.002C206.796 264.134 209.464 264.901 211.875 264.901C214.504 264.901 215.49 264.206 215.49 263.112C215.49 259.897 203.619 263.185 203.619 255.331C203.619 251.604 206.979 248.975 212.715 248.975C215.417 248.975 218.413 249.595 220.276 250.691L218.377 254.747C216.441 253.651 214.504 253.285 212.715 253.285C210.157 253.285 209.061 254.09 209.061 255.111C209.061 258.472 220.934 255.221 220.934 262.965C220.934 266.619 217.537 269.213 211.655 269.213C208.33 269.213 204.969 268.298 203.143 267.093Z" fill="#E0E0E0"/>
<path d="M250 427.561C357.082 427.561 443.889 422.492 443.889 416.238C443.889 409.984 357.082 404.915 250 404.915C142.918 404.915 56.111 409.984 56.111 416.238C56.111 422.492 142.918 427.561 250 427.561Z" fill="#F5F5F5"/>
<path d="M325.931 127.38H296.099C294.845 127.38 293.829 126.364 293.829 125.11V95.278C293.829 94.024 294.845 93.008 296.099 93.008H325.931C327.185 93.008 328.201 94.024 328.201 95.278V125.11C328.201 126.364 327.185 127.38 325.931 127.38Z" fill="#394252"/>
<g opacity="0.4">
<path d="M325.931 127.38H296.099C294.845 127.38 293.829 126.364 293.829 125.11V95.278C293.829 94.024 294.845 93.008 296.099 93.008H325.931C327.185 93.008 328.201 94.024 328.201 95.278V125.11C328.201 126.364 327.185 127.38 325.931 127.38Z" fill="white"/>
</g>
<path d="M306.402 108.385L300.437 110.57L306.402 112.738V114.977L297.875 111.735V109.406L306.402 106.163V108.385Z" fill="white"/>
<path d="M312.815 101.757H315.305L309.393 118.632H306.903L312.815 101.757Z" fill="white"/>
<path d="M324.155 109.406V111.735L315.628 114.977V112.738L321.593 110.57L315.628 108.385V106.163L324.155 109.406Z" fill="white"/>
<path d="M301.401 133.656V142.009H299.468V138.584H295.674V142.009H293.741V133.656H295.674V136.949H299.468V133.656H301.401Z" fill="#262D38"/>
<path d="M305.118 135.231H302.445V133.656H309.724V135.231H307.051V142.009H305.118V135.231Z" fill="#262D38"/>
<path d="M318.367 142.009L318.355 136.997L315.897 141.126H315.026L312.58 137.105V142.009H310.766V133.656H312.365L315.491 138.846L318.569 133.656H320.156L320.179 142.009H318.367Z" fill="#262D38"/>
<path d="M322.168 133.656H324.101V140.433H328.289V142.008H322.167V133.656H322.168Z" fill="#262D38"/>
<g opacity="0.6">
<path d="M301.401 133.656V142.009H299.468V138.584H295.674V142.009H293.741V133.656H295.674V136.949H299.468V133.656H301.401Z" fill="white"/>
<path d="M305.118 135.231H302.445V133.656H309.724V135.231H307.051V142.009H305.118V135.231Z" fill="white"/>
<path d="M318.367 142.009L318.355 136.997L315.897 141.126H315.026L312.58 137.105V142.009H310.766V133.656H312.365L315.491 138.846L318.569 133.656H320.156L320.179 142.009H318.367Z" fill="white"/>
<path d="M322.168 133.656H324.101V140.433H328.289V142.008H322.167V133.656H322.168Z" fill="white"/>
</g>
<path d="M399.439 145.7H369.607C368.353 145.7 367.337 144.684 367.337 143.43V113.598C367.337 112.344 368.353 111.328 369.607 111.328H399.439C400.693 111.328 401.709 112.344 401.709 113.598V143.43C401.709 144.683 400.693 145.7 399.439 145.7Z" fill="#394252"/>
<g opacity="0.4">
<path d="M399.439 145.7H369.607C368.353 145.7 367.337 144.684 367.337 143.43V113.598C367.337 112.344 368.353 111.328 369.607 111.328H399.439C400.693 111.328 401.709 112.344 401.709 113.598V143.43C401.709 144.683 400.693 145.7 399.439 145.7Z" fill="white"/>
</g>
<path d="M378.89 128.514C379.714 128.764 380.09 129.284 380.09 130.52V133.386C380.09 134.228 380.52 134.712 381.398 134.712H381.72V136.897H380.681C378.442 136.897 377.295 135.751 377.295 133.69V130.448C377.295 129.875 376.99 129.606 376.506 129.606H375.915V127.42H376.506C376.99 127.42 377.295 127.151 377.295 126.578V123.336C377.295 121.276 378.441 120.13 380.681 120.13H381.72V122.315H381.398C380.52 122.315 380.09 122.798 380.09 123.641V126.507C380.09 127.743 379.714 128.263 378.89 128.514Z" fill="white"/>
<path d="M393.13 127.421V129.607H392.539C392.056 129.607 391.751 129.876 391.751 130.449V133.691C391.751 135.751 390.605 136.898 388.365 136.898H387.326V134.713H387.649C388.526 134.713 388.957 134.229 388.957 133.387V130.521C388.957 129.285 389.333 128.765 390.157 128.515C389.333 128.264 388.957 127.744 388.957 126.509V123.643C388.957 122.801 388.527 122.317 387.649 122.317H387.326V120.132H388.365C390.604 120.132 391.751 121.278 391.751 123.338V126.58C391.751 127.153 392.056 127.422 392.539 127.422L393.13 127.421Z" fill="white"/>
<path d="M372.968 156.284C372.968 153.766 374.901 151.965 377.502 151.965C378.946 151.965 380.151 152.49 380.938 153.445L379.697 154.59C379.136 153.945 378.432 153.611 377.597 153.611C376.034 153.611 374.924 154.709 374.924 156.284C374.924 157.859 376.034 158.957 377.597 158.957C378.432 158.957 379.136 158.623 379.697 157.967L380.938 159.112C380.15 160.078 378.945 160.603 377.49 160.603C374.901 160.603 372.968 158.801 372.968 156.284Z" fill="#262D38"/>
<path d="M381.517 159.637L382.173 158.181C382.877 158.694 383.927 159.052 384.929 159.052C386.075 159.052 386.54 158.67 386.54 158.157C386.54 156.594 381.684 157.668 381.684 154.565C381.684 153.145 382.83 151.964 385.204 151.964C386.254 151.964 387.328 152.214 388.104 152.704L387.507 154.171C386.731 153.73 385.932 153.515 385.192 153.515C384.046 153.515 383.605 153.945 383.605 154.47C383.605 156.01 388.462 154.948 388.462 158.014C388.462 159.41 387.304 160.603 384.918 160.603C383.593 160.603 382.256 160.21 381.517 159.637Z" fill="#262D38"/>
<path d="M389.134 159.637L389.79 158.181C390.494 158.694 391.544 159.052 392.546 159.052C393.692 159.052 394.157 158.67 394.157 158.157C394.157 156.594 389.3 157.668 389.3 154.565C389.3 153.145 390.446 151.964 392.82 151.964C393.87 151.964 394.944 152.214 395.72 152.704L395.123 154.171C394.347 153.73 393.548 153.515 392.808 153.515C391.663 153.515 391.221 153.945 391.221 154.47C391.221 156.01 396.078 154.948 396.078 158.014C396.078 159.41 394.92 160.603 392.534 160.603C391.21 160.603 389.874 160.21 389.134 159.637Z" fill="#262D38"/>
<g opacity="0.6">
<path d="M372.968 156.284C372.968 153.766 374.901 151.965 377.502 151.965C378.946 151.965 380.151 152.49 380.938 153.445L379.697 154.59C379.136 153.945 378.432 153.611 377.597 153.611C376.034 153.611 374.924 154.709 374.924 156.284C374.924 157.859 376.034 158.957 377.597 158.957C378.432 158.957 379.136 158.623 379.697 157.967L380.938 159.112C380.15 160.078 378.945 160.603 377.49 160.603C374.901 160.603 372.968 158.801 372.968 156.284Z" fill="white"/>
<path d="M381.517 159.637L382.173 158.181C382.877 158.694 383.927 159.052 384.929 159.052C386.075 159.052 386.54 158.67 386.54 158.157C386.54 156.594 381.684 157.668 381.684 154.565C381.684 153.145 382.83 151.964 385.204 151.964C386.254 151.964 387.328 152.214 388.104 152.704L387.507 154.171C386.731 153.73 385.932 153.515 385.192 153.515C384.046 153.515 383.605 153.945 383.605 154.47C383.605 156.01 388.462 154.948 388.462 158.014C388.462 159.41 387.304 160.603 384.918 160.603C383.593 160.603 382.256 160.21 381.517 159.637Z" fill="white"/>
<path d="M389.134 159.637L389.79 158.181C390.494 158.694 391.544 159.052 392.546 159.052C393.692 159.052 394.157 158.67 394.157 158.157C394.157 156.594 389.3 157.668 389.3 154.565C389.3 153.145 390.446 151.964 392.82 151.964C393.87 151.964 394.944 152.214 395.72 152.704L395.123 154.171C394.347 153.73 393.548 153.515 392.808 153.515C391.663 153.515 391.221 153.945 391.221 154.47C391.221 156.01 396.078 154.948 396.078 158.014C396.078 159.41 394.92 160.603 392.534 160.603C391.21 160.603 389.874 160.21 389.134 159.637Z" fill="white"/>
</g>
<path d="M271.062 107.981H148.552V196.659H271.062V107.981Z" fill="black"/>
<path opacity="0.9" d="M271.062 107.981H148.552V196.659H271.062V107.981Z" fill="white"/>
<path opacity="0.1" d="M165.615 107.981H148.552V196.659H165.615V107.981Z" fill="black"/>
<path d="M271.062 107.981H148.552V116.271H271.062V107.981Z" fill="#394252"/>
<g opacity="0.2">
<path d="M197.712 128.779H175.395C174.843 128.779 174.395 128.331 174.395 127.779C174.395 127.227 174.843 126.779 175.395 126.779H197.712C198.264 126.779 198.712 127.227 198.712 127.779C198.712 128.331 198.264 128.779 197.712 128.779Z" fill="black"/>
<path d="M246.965 128.779H203.646C203.094 128.779 202.646 128.331 202.646 127.779C202.646 127.227 203.094 126.779 203.646 126.779H246.965C247.517 126.779 247.965 127.227 247.965 127.779C247.965 128.331 247.517 128.779 246.965 128.779Z" fill="black"/>
<path d="M236.679 135.307H178.397C177.845 135.307 177.397 134.859 177.397 134.307C177.397 133.755 177.845 133.307 178.397 133.307H236.679C237.231 133.307 237.679 133.755 237.679 134.307C237.679 134.859 237.231 135.307 236.679 135.307Z" fill="black"/>
<path d="M212.943 141.834H175.395C174.843 141.834 174.395 141.386 174.395 140.834C174.395 140.282 174.843 139.834 175.395 139.834H212.943C213.495 139.834 213.943 140.282 213.943 140.834C213.943 141.386 213.495 141.834 212.943 141.834Z" fill="black"/>
<path d="M246.965 141.834H220.064C219.512 141.834 219.064 141.386 219.064 140.834C219.064 140.282 219.512 139.834 220.064 139.834H246.965C247.517 139.834 247.965 140.282 247.965 140.834C247.965 141.386 247.517 141.834 246.965 141.834Z" fill="black"/>
<path d="M196.13 148.362H175.395C174.843 148.362 174.395 147.914 174.395 147.362C174.395 146.81 174.843 146.362 175.395 146.362H196.13C196.682 146.362 197.13 146.81 197.13 147.362C197.13 147.914 196.682 148.362 196.13 148.362Z" fill="black"/>
<path d="M235.492 148.362H202.855C202.303 148.362 201.855 147.914 201.855 147.362C201.855 146.81 202.303 146.362 202.855 146.362H235.492C236.044 146.362 236.492 146.81 236.492 147.362C236.492 147.914 236.044 148.362 235.492 148.362Z" fill="black"/>
<path d="M206.287 154.889H178.397C177.845 154.889 177.397 154.441 177.397 153.889C177.397 153.337 177.845 152.889 178.397 152.889H206.287C206.839 152.889 207.287 153.337 207.287 153.889C207.287 154.441 206.839 154.889 206.287 154.889Z" fill="black"/>
<path d="M209.778 161.416H178.397C177.845 161.416 177.397 160.968 177.397 160.416C177.397 159.864 177.845 159.416 178.397 159.416H209.778C210.33 159.416 210.778 159.864 210.778 160.416C210.778 160.969 210.331 161.416 209.778 161.416Z" fill="black"/>
<path d="M246.965 161.416H214.921C214.369 161.416 213.921 160.968 213.921 160.416C213.921 159.864 214.369 159.416 214.921 159.416H246.965C247.517 159.416 247.965 159.864 247.965 160.416C247.965 160.969 247.517 161.416 246.965 161.416Z" fill="black"/>
<path d="M193.36 167.944H175.395C174.843 167.944 174.395 167.496 174.395 166.944C174.395 166.392 174.843 165.944 175.395 165.944H193.36C193.912 165.944 194.36 166.392 194.36 166.944C194.36 167.496 193.913 167.944 193.36 167.944Z" fill="black"/>
<path d="M246.965 167.944H199.492C198.94 167.944 198.492 167.496 198.492 166.944C198.492 166.392 198.94 165.944 199.492 165.944H246.965C247.517 165.944 247.965 166.392 247.965 166.944C247.965 167.496 247.517 167.944 246.965 167.944Z" fill="black"/>
<path d="M209.58 174.472H178.397C177.845 174.472 177.397 174.024 177.397 173.472C177.397 172.92 177.845 172.472 178.397 172.472H209.58C210.132 172.472 210.58 172.92 210.58 173.472C210.58 174.024 210.132 174.472 209.58 174.472Z" fill="black"/>
<path d="M234.108 174.472H213.932C213.38 174.472 212.932 174.024 212.932 173.472C212.932 172.92 213.38 172.472 213.932 172.472H234.108C234.66 172.472 235.108 172.92 235.108 173.472C235.108 174.024 234.66 174.472 234.108 174.472Z" fill="black"/>
<path d="M214.292 180.999H178.397C177.845 180.999 177.397 180.551 177.397 179.999C177.397 179.447 177.845 178.999 178.397 178.999H214.292C214.844 178.999 215.292 179.447 215.292 179.999C215.292 180.551 214.844 180.999 214.292 180.999Z" fill="black"/>
</g>
<path opacity="0.4" d="M265.788 113.898C266.735 113.898 267.502 113.131 267.502 112.184C267.502 111.237 266.735 110.47 265.788 110.47C264.841 110.47 264.074 111.237 264.074 112.184C264.074 113.131 264.841 113.898 265.788 113.898Z" fill="white"/>
<path opacity="0.4" d="M259.784 113.898C260.731 113.898 261.498 113.131 261.498 112.184C261.498 111.237 260.731 110.47 259.784 110.47C258.837 110.47 258.07 111.237 258.07 112.184C258.07 113.131 258.837 113.898 259.784 113.898Z" fill="white"/>
<path opacity="0.4" d="M253.78 113.898C254.727 113.898 255.494 113.131 255.494 112.184C255.494 111.237 254.727 110.47 253.78 110.47C252.833 110.47 252.066 111.237 252.066 112.184C252.066 113.131 252.833 113.898 253.78 113.898Z" fill="white"/>
<g opacity="0.2">
<path d="M157.384 128.779H157.338C156.786 128.779 156.338 128.331 156.338 127.779C156.338 127.227 156.786 126.779 157.338 126.779C157.89 126.779 158.361 127.227 158.361 127.779C158.361 128.331 157.936 128.779 157.384 128.779Z" fill="black"/>
<path d="M157.384 135.307H157.338C156.786 135.307 156.338 134.859 156.338 134.307C156.338 133.755 156.786 133.307 157.338 133.307C157.89 133.307 158.361 133.755 158.361 134.307C158.361 134.859 157.936 135.307 157.384 135.307Z" fill="black"/>
<path d="M157.384 141.834H157.338C156.786 141.834 156.338 141.386 156.338 140.834C156.338 140.282 156.786 139.834 157.338 139.834C157.89 139.834 158.361 140.282 158.361 140.834C158.361 141.386 157.936 141.834 157.384 141.834Z" fill="black"/>
<path d="M157.384 148.362H157.338C156.786 148.362 156.338 147.914 156.338 147.362C156.338 146.81 156.786 146.362 157.338 146.362C157.89 146.362 158.361 146.81 158.361 147.362C158.361 147.914 157.936 148.362 157.384 148.362Z" fill="black"/>
<path d="M157.384 154.889H157.338C156.786 154.889 156.338 154.441 156.338 153.889C156.338 153.337 156.786 152.889 157.338 152.889C157.89 152.889 158.361 153.337 158.361 153.889C158.361 154.441 157.936 154.889 157.384 154.889Z" fill="black"/>
<path d="M157.384 161.416H157.338C156.786 161.416 156.338 160.968 156.338 160.416C156.338 159.864 156.786 159.416 157.338 159.416C157.89 159.416 158.361 159.864 158.361 160.416C158.361 160.969 157.936 161.416 157.384 161.416Z" fill="black"/>
<path d="M157.384 167.944H157.338C156.786 167.944 156.338 167.496 156.338 166.944C156.338 166.392 156.786 165.944 157.338 165.944C157.89 165.944 158.361 166.392 158.361 166.944C158.361 167.496 157.936 167.944 157.384 167.944Z" fill="black"/>
<path d="M157.384 174.472H157.338C156.786 174.472 156.338 174.024 156.338 173.472C156.338 172.92 156.786 172.472 157.338 172.472C157.89 172.472 158.361 172.92 158.361 173.472C158.361 174.024 157.936 174.472 157.384 174.472Z" fill="black"/>
<path d="M157.384 180.999H157.338C156.786 180.999 156.338 180.551 156.338 179.999C156.338 179.447 156.786 178.999 157.338 178.999C157.89 178.999 158.361 179.447 158.361 179.999C158.361 180.551 157.936 180.999 157.384 180.999Z" fill="black"/>
</g>
<path d="M382.026 180.344H221.492V283.13H382.026V180.344Z" fill="#262D38"/>
<path opacity="0.9" d="M382.026 180.344H221.492V283.13H382.026V180.344Z" fill="white"/>
<path opacity="0.1" d="M246.533 180.344H221.492V283.13H246.533V180.344Z" fill="black"/>
<path d="M382.026 180.344H221.492V188.634H382.026V180.344Z" fill="#394252"/>
<path d="M232.833 197.719L230.17 198.695L232.833 199.662V200.662L229.027 199.215V198.175L232.833 196.728V197.719Z" fill="white"/>
<path d="M235.698 194.761H236.809L234.171 202.293H233.06L235.698 194.761Z" fill="white"/>
<path d="M240.763 198.175V199.215L236.957 200.662V199.662L239.62 198.695L236.957 197.719V196.727L240.763 198.175Z" fill="white"/>
<g opacity="0.2">
<path d="M240.202 209.147H229.323C228.771 209.147 228.323 208.699 228.323 208.147C228.323 207.595 228.771 207.147 229.323 207.147H240.202C240.754 207.147 241.202 207.595 241.202 208.147C241.202 208.699 240.754 209.147 240.202 209.147Z" fill="black"/>
<path d="M240.202 215.674H229.323C228.771 215.674 228.323 215.226 228.323 214.674C228.323 214.122 228.771 213.674 229.323 213.674H240.202C240.754 213.674 241.202 214.122 241.202 214.674C241.202 215.227 240.754 215.674 240.202 215.674Z" fill="black"/>
<path d="M240.202 222.202H229.323C228.771 222.202 228.323 221.754 228.323 221.202C228.323 220.65 228.771 220.202 229.323 220.202H240.202C240.754 220.202 241.202 220.65 241.202 221.202C241.202 221.754 240.754 222.202 240.202 222.202Z" fill="black"/>
<path d="M240.202 228.73H229.323C228.771 228.73 228.323 228.282 228.323 227.73C228.323 227.178 228.771 226.73 229.323 226.73H240.202C240.754 226.73 241.202 227.178 241.202 227.73C241.202 228.282 240.754 228.73 240.202 228.73Z" fill="black"/>
<path d="M240.202 235.257H229.323C228.771 235.257 228.323 234.81 228.323 234.257C228.323 233.704 228.771 233.257 229.323 233.257H240.202C240.754 233.257 241.202 233.704 241.202 234.257C241.202 234.81 240.754 235.257 240.202 235.257Z" fill="black"/>
<path d="M240.202 241.784H229.323C228.771 241.784 228.323 241.337 228.323 240.784C228.323 240.231 228.771 239.784 229.323 239.784H240.202C240.754 239.784 241.202 240.231 241.202 240.784C241.202 241.337 240.754 241.784 240.202 241.784Z" fill="black"/>
<path d="M240.202 248.311H229.323C228.771 248.311 228.323 247.864 228.323 247.311C228.323 246.758 228.771 246.311 229.323 246.311H240.202C240.754 246.311 241.202 246.758 241.202 247.311C241.202 247.864 240.754 248.311 240.202 248.311Z" fill="black"/>
<path d="M240.202 254.839H229.323C228.771 254.839 228.323 254.392 228.323 253.839C228.323 253.286 228.771 252.839 229.323 252.839H240.202C240.754 252.839 241.202 253.286 241.202 253.839C241.202 254.392 240.754 254.839 240.202 254.839Z" fill="black"/>
<path d="M240.202 261.366H229.323C228.771 261.366 228.323 260.919 228.323 260.366C228.323 259.813 228.771 259.366 229.323 259.366H240.202C240.754 259.366 241.202 259.813 241.202 260.366C241.202 260.919 240.754 261.366 240.202 261.366Z" fill="black"/>
</g>
<path d="M271.652 209.147H249.335C248.783 209.147 248.335 208.699 248.335 208.147C248.335 207.595 248.783 207.147 249.335 207.147H271.652C272.204 207.147 272.652 207.595 272.652 208.147C272.652 208.699 272.204 209.147 271.652 209.147Z" fill="#394252"/>
<path d="M335.74 209.147H277.586C277.034 209.147 276.586 208.699 276.586 208.147C276.586 207.595 277.034 207.147 277.586 207.147H335.74C336.292 207.147 336.74 207.595 336.74 208.147C336.74 208.699 336.293 209.147 335.74 209.147Z" fill="#262D38"/>
<g opacity="0.2">
<path d="M362.278 209.147H345.432C344.88 209.147 344.432 208.699 344.432 208.147C344.432 207.595 344.88 207.147 345.432 207.147H362.278C362.83 207.147 363.278 207.595 363.278 208.147C363.278 208.699 362.831 209.147 362.278 209.147Z" fill="#262D38"/>
</g>
<g opacity="0.2">
<path d="M310.619 215.674H252.337C251.785 215.674 251.337 215.226 251.337 214.674C251.337 214.122 251.785 213.674 252.337 213.674H310.619C311.171 213.674 311.619 214.122 311.619 214.674C311.619 215.227 311.172 215.674 310.619 215.674Z" fill="#262D38"/>
</g>
<path d="M370.283 215.674H315.96C315.408 215.674 314.96 215.226 314.96 214.674C314.96 214.122 315.408 213.674 315.96 213.674H370.283C370.835 213.674 371.283 214.122 371.283 214.674C371.283 215.227 370.836 215.674 370.283 215.674Z" fill="#394252"/>
<path d="M286.883 222.202H252.337C251.785 222.202 251.337 221.754 251.337 221.202C251.337 220.65 251.785 220.202 252.337 220.202H286.883C287.435 220.202 287.883 220.65 287.883 221.202C287.883 221.754 287.435 222.202 286.883 222.202Z" fill="#262D38"/>
<path d="M328.026 222.202H294.004C293.452 222.202 293.004 221.754 293.004 221.202C293.004 220.65 293.452 220.202 294.004 220.202H328.026C328.578 220.202 329.026 220.65 329.026 221.202C329.026 221.754 328.578 222.202 328.026 222.202Z" fill="#394252"/>
<path d="M370.283 222.202H333.564C333.012 222.202 332.564 221.754 332.564 221.202C332.564 220.65 333.012 220.202 333.564 220.202H370.283C370.835 220.202 371.283 220.65 371.283 221.202C371.283 221.754 370.836 222.202 370.283 222.202Z" fill="#262D38"/>
<path d="M290.082 228.73H269.347C268.795 228.73 268.347 228.282 268.347 227.73C268.347 227.178 268.795 226.73 269.347 226.73H290.082C290.634 226.73 291.082 227.178 291.082 227.73C291.082 228.282 290.635 228.73 290.082 228.73Z" fill="#262D38"/>
<path d="M319.439 228.73H296.808C296.256 228.73 295.808 228.282 295.808 227.73C295.808 227.178 296.256 226.73 296.808 226.73H319.439C319.991 226.73 320.439 227.178 320.439 227.73C320.439 228.282 319.991 228.73 319.439 228.73Z" fill="#262D38"/>
<g opacity="0.2">
<path d="M361.278 228.73H324.582C324.03 228.73 323.582 228.282 323.582 227.73C323.582 227.178 324.03 226.73 324.582 226.73H361.278C361.83 226.73 362.278 227.178 362.278 227.73C362.278 228.282 361.83 228.73 361.278 228.73Z" fill="#262D38"/>
</g>
<g opacity="0.2">
<path d="M280.227 235.257H252.337C251.785 235.257 251.337 234.81 251.337 234.257C251.337 233.704 251.785 233.257 252.337 233.257H280.227C280.779 233.257 281.227 233.704 281.227 234.257C281.227 234.81 280.779 235.257 280.227 235.257Z" fill="#262D38"/>
</g>
<path d="M283.718 241.784H252.337C251.785 241.784 251.337 241.337 251.337 240.784C251.337 240.231 251.785 239.784 252.337 239.784H283.718C284.27 239.784 284.718 240.231 284.718 240.784C284.718 241.337 284.27 241.784 283.718 241.784Z" fill="#394252"/>
<path d="M336.136 241.784H288.861C288.309 241.784 287.861 241.337 287.861 240.784C287.861 240.231 288.309 239.784 288.861 239.784H336.136C336.688 239.784 337.136 240.231 337.136 240.784C337.136 241.337 336.688 241.784 336.136 241.784Z" fill="#262D38"/>
<path d="M370.283 241.784H341.872C341.32 241.784 340.872 241.337 340.872 240.784C340.872 240.231 341.32 239.784 341.872 239.784H370.283C370.835 239.784 371.283 240.231 371.283 240.784C371.283 241.337 370.836 241.784 370.283 241.784Z" fill="#262D38"/>
<g opacity="0.2">
<path d="M280.309 248.311H262.344C261.792 248.311 261.344 247.864 261.344 247.311C261.344 246.758 261.792 246.311 262.344 246.311H280.309C280.861 246.311 281.309 246.758 281.309 247.311C281.309 247.864 280.861 248.311 280.309 248.311Z" fill="#262D38"/>
</g>
<g opacity="0.2">
<path d="M320.905 248.311H286.44C285.888 248.311 285.44 247.864 285.44 247.311C285.44 246.758 285.888 246.311 286.44 246.311H320.905C321.457 246.311 321.905 246.758 321.905 247.311C321.905 247.864 321.457 248.311 320.905 248.311Z" fill="#262D38"/>
</g>
<path d="M361.278 248.311H327.63C327.078 248.311 326.63 247.864 326.63 247.311C326.63 246.758 327.078 246.311 327.63 246.311H361.277C361.829 246.311 362.277 246.758 362.277 247.311C362.278 247.864 361.83 248.311 361.278 248.311Z" fill="#262D38"/>
<path d="M293.526 254.839H272.35C271.798 254.839 271.35 254.392 271.35 253.839C271.35 253.286 271.798 252.839 272.35 252.839H293.527C294.079 252.839 294.527 253.286 294.527 253.839C294.526 254.392 294.079 254.839 293.526 254.839Z" fill="#262D38"/>
<g opacity="0.2">
<path d="M318.054 254.839H297.878C297.326 254.839 296.878 254.392 296.878 253.839C296.878 253.286 297.326 252.839 297.878 252.839H318.054C318.606 252.839 319.054 253.286 319.054 253.839C319.054 254.392 318.607 254.839 318.054 254.839Z" fill="#262D38"/>
</g>
<path d="M361.278 254.839H324.384C323.832 254.839 323.384 254.392 323.384 253.839C323.384 253.286 323.832 252.839 324.384 252.839H361.278C361.83 252.839 362.278 253.286 362.278 253.839C362.278 254.392 361.83 254.839 361.278 254.839Z" fill="#394252"/>
<g opacity="0.2">
<path d="M298.238 261.366H272.35C271.798 261.366 271.35 260.919 271.35 260.366C271.35 259.813 271.798 259.366 272.35 259.366H298.239C298.791 259.366 299.239 259.813 299.239 260.366C299.239 260.919 298.791 261.366 298.238 261.366Z" fill="#262D38"/>
</g>
<path opacity="0.4" d="M375.037 184.546C375.037 185.493 375.804 186.26 376.751 186.26C377.698 186.26 378.465 185.492 378.465 184.546C378.465 183.599 377.698 182.832 376.751 182.832C375.804 182.832 375.037 183.6 375.037 184.546Z" fill="white"/>
<path opacity="0.4" d="M370.747 186.26C371.694 186.26 372.461 185.493 372.461 184.546C372.461 183.599 371.694 182.832 370.747 182.832C369.8 182.832 369.033 183.599 369.033 184.546C369.033 185.493 369.8 186.26 370.747 186.26Z" fill="white"/>
<path opacity="0.4" d="M364.743 186.26C365.69 186.26 366.457 185.493 366.457 184.546C366.457 183.599 365.69 182.832 364.743 182.832C363.796 182.832 363.029 183.599 363.029 184.546C363.029 185.493 363.796 186.26 364.743 186.26Z" fill="white"/>
<path d="M113.263 186.415H84.535C79.649 186.415 75.689 190.375 75.689 195.261V220.263C75.689 225.148 79.65 229.109 84.535 229.109H104.903L110.907 237.003V229.109H113.264C118.149 229.109 122.11 225.149 122.11 220.263V195.261C122.109 190.376 118.149 186.415 113.263 186.415Z" fill="#394252"/>
<path opacity="0.7" d="M113.263 186.415H84.535C79.649 186.415 75.689 190.375 75.689 195.261V220.263C75.689 225.148 79.65 229.109 84.535 229.109H104.903L110.907 237.003V229.109H113.264C118.149 229.109 122.11 225.149 122.11 220.263V195.261C122.109 190.376 118.149 186.415 113.263 186.415Z" fill="white"/>
<path d="M108.979 217.736C114.547 212.168 114.547 203.14 108.979 197.572C103.411 192.004 94.3834 192.004 88.8154 197.572C83.2474 203.14 83.2474 212.168 88.8154 217.736C94.3834 223.304 103.411 223.304 108.979 217.736Z" fill="#394252"/>
<path d="M97.403 214.023C97.018 214.023 96.653 213.854 96.404 213.561L90.81 206.97C90.342 206.418 90.41 205.592 90.961 205.123C91.512 204.656 92.339 204.722 92.808 205.274L97.403 210.688L104.991 201.748C105.46 201.195 106.287 201.129 106.838 201.597C107.39 202.065 107.458 202.892 106.989 203.444L98.402 213.562C98.153 213.854 97.787 214.023 97.403 214.023Z" fill="white"/>
<path d="M204.724 363.481L226.189 362.426L224.102 381.098C224.102 381.098 209.202 383.944 202.555 373.342L204.724 363.481Z" fill="#EBB376"/>
<path d="M240.032 368.935L235.144 382.48L224.102 381.098L226.189 362.426L240.032 368.935Z" fill="#EBB376"/>
<path d="M184.11 393.784C196.935 387.326 206.185 377.388 206.185 377.388L204.724 363.481C184.432 366.439 172.734 370.772 172.734 370.772C172.734 370.772 180.247 343.816 173.372 333.996L154.484 337.42C154.484 337.42 134.415 379.138 147.912 393.784H184.11Z" fill="#394252"/>
<path opacity="0.7" d="M184.083 393.784C196.914 387.333 206.178 377.396 206.178 377.396L204.715 363.475C185.079 366.355 173.466 370.493 172.758 370.744C173.009 369.761 180.119 343.633 173.375 333.986L154.493 337.415C154.493 337.415 148.526 349.805 145.281 363.475C142.582 374.864 141.786 387.126 147.931 393.784H184.083Z" fill="white"/>
<path opacity="0.2" d="M168.554 393.784C175.221 351.516 169.306 340.798 169.306 340.798L145.281 363.474C142.582 374.863 141.786 387.125 147.931 393.783H168.554V393.784Z" fill="black"/>
<path d="M164.379 393.784C168.875 372.419 173.926 338.976 173.371 333.996C172.565 326.761 133.185 295.738 99.013 318.321C92.033 322.934 88.441 372.658 87.22 393.784H164.379Z" fill="#394252"/>
<path opacity="0.7" d="M164.379 393.784C168.877 372.418 173.927 338.975 173.376 333.986C172.576 326.762 133.189 295.742 99.015 318.327C96.477 320.019 94.397 327.654 92.683 337.735C90.397 351.451 88.82 369.67 87.883 383.408C87.619 387.298 87.404 390.816 87.233 393.784H164.379Z" fill="white"/>
<path d="M147.514 226.546C135.663 221.757 107.722 238.949 105.274 269.6C102.825 300.251 118.365 291.755 118.365 291.755C118.365 291.755 121.129 303.451 132.449 299.839C132.449 299.839 141.799 310.431 150.504 306.121C150.504 306.121 161.329 317.401 167.141 311.446C167.141 311.446 173.466 318.664 179.236 313.196C185.006 307.729 201.488 251.994 175.62 239.108C149.752 226.222 147.514 226.546 147.514 226.546Z" fill="#262D38"/>
<path d="M147.53 351.963L146.391 351.861C147.705 337.104 144.458 330.57 144.426 330.506L145.441 329.982C145.582 330.254 148.877 336.823 147.53 351.963Z" fill="#262D38"/>
<path d="M152.887 352.135C145.045 333.638 153.866 329.334 154.245 329.16L154.722 330.199L154.484 329.679L154.725 330.198C154.643 330.236 146.564 334.292 153.94 351.689L152.887 352.135Z" fill="#262D38"/>
<path d="M145.216 333.543C145.216 333.543 130.067 321.561 106.549 314.783L99.013 318.32C99.013 318.32 86.352 302.645 107.453 297.521C128.554 292.397 157.254 306.491 164.466 318.622C171.678 330.753 151.947 334.598 151.947 334.598C151.947 334.598 150.107 332.164 145.216 333.543Z" fill="#394252"/>
<path opacity="0.6" d="M145.216 333.543C145.216 333.543 130.067 321.561 106.549 314.783L99.013 318.32C99.013 318.32 86.352 302.645 107.453 297.521C128.554 292.397 157.254 306.491 164.466 318.622C171.678 330.753 151.947 334.598 151.947 334.598C151.947 334.598 150.107 332.164 145.216 333.543Z" fill="white"/>
<path d="M154.359 351.913C154.359 352.464 153.912 352.912 153.36 352.912C152.809 352.912 152.361 352.465 152.361 351.913C152.361 351.361 152.808 350.914 153.36 350.914C153.912 350.914 154.359 351.361 154.359 351.913Z" fill="white"/>
<path d="M147.866 351.913C147.866 352.464 147.419 352.912 146.867 352.912C146.316 352.912 145.868 352.465 145.868 351.913C145.868 351.361 146.315 350.914 146.867 350.914C147.419 350.914 147.866 351.361 147.866 351.913Z" fill="white"/>
<path d="M137.169 276.966C136.247 287.704 132.959 306.796 124.228 311C124.228 311 133.993 312.988 149.211 332.315C157.88 326.229 154.602 322.085 154.602 322.085C144.459 315.435 147.089 307.232 151.192 300.124L137.169 276.966Z" fill="#EBB376"/>
<path opacity="0.2" d="M142.884 286.413L151.186 300.112C150.208 301.792 149.325 303.534 148.684 305.308C144.695 303.171 140.303 296.389 141.127 291.75C141.538 289.437 142.236 287.324 142.884 286.413Z" fill="black"/>
<path d="M135.981 254.305C133.188 271.168 131.655 278.228 137.898 289.083C147.289 305.411 168.096 306.178 175.746 290.739C182.631 276.842 186.043 251.6 171.682 240.456C157.534 229.477 138.774 237.442 135.981 254.305Z" fill="#EBB376"/>
<path d="M170.533 231.066C181.458 237.133 191.867 256.074 176.317 251.339C173.973 255.887 165.597 251.724 160.733 246.26C159.914 250.045 150.945 253.848 144.349 247.979C147.537 252.581 142.113 264.193 136.458 262.19C130.802 260.187 118.126 257.559 129.365 239.659C140.604 221.759 158.859 224.584 170.533 231.066Z" fill="#262D38"/>
<path d="M166.552 270.219C166.552 270.219 167.558 276.915 169.453 280.545C167.316 281.774 164.467 280.127 164.467 280.127L166.552 270.219Z" fill="#D58745"/>
<path d="M155.651 283.13C156.32 283.456 157.054 283.743 157.861 283.972C158.078 284.034 158.294 283.899 158.342 283.67C158.39 283.443 158.257 283.211 158.034 283.146C152.143 281.48 150.293 276.387 150.275 276.336C150.197 276.11 149.963 275.987 149.755 276.06C149.546 276.132 149.44 276.374 149.519 276.598C149.589 276.796 151.076 280.898 155.651 283.13Z" fill="#262D38"/>
<path d="M127.492 266.426C128.555 270.312 131.162 273.258 133.87 274.742C137.944 276.974 140.918 273.152 140.571 268.395C140.258 264.114 137.762 257.794 133.296 257.543C128.896 257.296 126.277 261.983 127.492 266.426Z" fill="#EBB376"/>
<path d="M154.505 254.767C154.709 254.845 154.937 254.839 155.139 254.732C158.29 253.045 160.931 254.617 160.962 254.635C161.353 254.869 161.844 254.741 162.054 254.334C162.262 253.928 162.112 253.404 161.717 253.162C161.579 253.079 158.265 251.103 154.355 253.198C153.965 253.407 153.825 253.92 154.041 254.343C154.146 254.547 154.314 254.694 154.505 254.767Z" fill="#262D38"/>
<path d="M181.375 261.349C181.557 261.447 181.771 261.476 181.975 261.413C182.397 261.281 182.622 260.807 182.478 260.354C181.031 255.812 177.427 254.618 177.272 254.569C176.839 254.432 176.4 254.686 176.291 255.138C176.182 255.589 176.443 256.065 176.874 256.205C177.016 256.25 179.799 257.218 180.95 260.83C181.024 261.063 181.182 261.245 181.375 261.349Z" fill="#262D38"/>
<path d="M159.875 265.803C159.385 267.135 158.268 267.95 157.38 267.623C156.492 267.296 156.169 265.952 156.659 264.62C157.149 263.288 158.266 262.473 159.154 262.799C160.042 263.126 160.365 264.471 159.875 265.803Z" fill="#262D38"/>
<path d="M158.76 262.728L162.075 262.657C162.075 262.657 159.736 264.564 158.76 262.728Z" fill="#262D38"/>
<path d="M176.671 271.125C176.181 272.457 175.064 273.272 174.176 272.945C173.288 272.618 172.965 271.274 173.455 269.942C173.945 268.61 175.062 267.794 175.95 268.121C176.838 268.449 177.161 269.793 176.671 271.125Z" fill="#262D38"/>
<path d="M175.556 268.05L178.871 267.979C178.871 267.979 176.532 269.887 175.556 268.05Z" fill="#262D38"/>
<path opacity="0.2" d="M137.281 364.457C137.281 364.457 110.97 384.619 87.882 383.408C88.819 369.67 90.396 351.451 92.682 337.735C95.037 335.129 96.591 333.552 96.591 333.552L110.626 344.022L107.22 348.297C107.22 348.297 128.411 347.223 135.794 348.297L137.281 364.457Z" fill="black"/>
<path d="M139.996 348.3L161.055 344.012L161.814 362.785C161.814 362.785 147.515 367.851 139.342 358.375L139.996 348.3Z" fill="#EBB376"/>
<path d="M175.723 348.355L172.939 362.483L161.814 362.786L161.055 344.013L175.723 348.355Z" fill="#EBB376"/>
<path d="M139.996 348.3L141.026 362.786L135.79 365.136L133.549 348.3H139.996Z" fill="#394252"/>
<path opacity="0.6" d="M139.996 348.3L141.026 362.786L135.79 365.136L133.549 348.3H139.996Z" fill="white"/>
<path d="M106.55 314.784C106.55 314.784 98.457 315.683 92.104 323.144C85.751 330.605 63.369 352.761 68.343 370.847C73.317 388.933 121.171 375.477 135.791 365.136L133.551 348.3L100.398 350.735L110.621 344.013C117.628 324.5 106.55 314.784 106.55 314.784Z" fill="#394252"/>
<path opacity="0.7" d="M106.55 314.784C106.55 314.784 98.457 315.683 92.104 323.144C85.751 330.605 63.369 352.761 68.343 370.847C73.317 388.933 121.171 375.477 135.791 365.136L133.551 348.3L100.398 350.735L110.621 344.013C117.628 324.5 106.55 314.784 106.55 314.784Z" fill="white"/>
<path d="M202.555 363.802L208.588 362.786V378.953L203.813 379.734L202.555 363.802Z" fill="#394252"/>
<path opacity="0.6" d="M202.555 363.802L208.588 362.786V378.953L203.813 379.734L202.555 363.802Z" fill="white"/>
<path d="M190.374 378.794C190.363 377.909 190.391 376.998 190.504 376.144L190.681 374.811L189.39 375.573L188.621 376.027C188.356 376.122 188.1 376.266 187.842 376.324C187.326 376.484 186.854 376.484 186.44 376.354C186.029 376.218 185.656 375.928 185.317 375.539C184.993 375.16 184.685 374.62 184.527 374.178L183.399 371.024L182.602 374.358C182.523 374.69 182.47 375.025 182.406 375.36C182.328 375.683 182.212 375.977 182.123 376.291C181.861 376.837 181.568 377.32 181.19 377.558C180.819 377.805 180.288 377.822 179.682 377.692C179.086 377.563 178.437 377.244 177.896 376.907L176.159 375.824L176.865 377.59C177.158 378.322 177.399 379.125 177.582 379.913C177.663 380.311 177.728 380.711 177.744 381.114C177.748 381.512 177.731 381.934 177.482 382.291C177.838 382.04 178.055 381.596 178.161 381.169C178.276 380.736 178.332 380.289 178.341 379.848C178.351 379.494 178.329 379.148 178.305 378.801C178.587 378.962 178.881 379.109 179.203 379.237C180.004 379.557 181.088 379.654 182.049 379.175C183.014 378.695 183.537 377.838 183.917 377.052C183.932 377.009 183.948 376.965 183.964 376.921C184.474 377.468 185.163 377.939 185.973 378.119C186.823 378.308 187.713 378.196 188.414 377.87C188.724 377.745 188.988 377.57 189.261 377.408C189.266 377.446 189.27 377.483 189.275 377.52C189.337 377.991 189.437 378.459 189.565 378.92C189.687 379.381 189.844 379.838 190.064 380.269C190.274 380.698 190.557 381.113 190.933 381.394C190.677 381.001 190.581 380.556 190.497 380.123C190.423 379.682 190.385 379.24 190.374 378.794Z" fill="#394252"/>
<path d="M226.14 356.228C225.484 356.321 224.589 356.219 223.833 355.983C223.073 355.738 222.257 355.364 221.655 354.934C221.029 354.482 220.487 353.889 220.048 353.208C219.604 352.552 219.21 351.759 218.978 351.059L218.323 349.08L217.201 350.847C216.749 351.559 216.113 352.284 215.482 352.839C214.837 353.4 214.113 353.77 213.471 353.754L213.229 353.74C213.136 353.727 213.027 353.699 212.927 353.68C212.721 353.646 212.516 353.58 212.31 353.523C211.9 353.395 211.497 353.213 211.104 353.005C210.329 352.59 209.561 351.998 208.948 351.409L207.208 349.739L207.565 352.027C207.753 353.228 207.866 354.514 207.803 355.724C207.759 356.324 207.674 356.931 207.452 357.425C207.233 357.93 206.823 358.173 206.234 358.127L205.778 358.092L205.919 358.462C206.206 359.213 206.51 359.96 206.822 360.704C206.724 360.037 206.614 359.373 206.499 358.711L206.683 358.739C206.875 358.741 207.079 358.676 207.28 358.635C207.464 358.554 207.636 358.433 207.809 358.319C207.94 358.178 208.075 358.031 208.201 357.878C208.636 357.243 208.805 356.551 208.948 355.878C209.083 355.2 209.149 354.526 209.172 353.853C209.172 353.842 209.172 353.832 209.172 353.821C209.499 354.081 209.838 354.327 210.204 354.555C210.67 354.837 211.16 355.093 211.685 355.292C212.238 355.481 212.701 355.655 213.417 355.683C214.781 355.721 215.912 355.059 216.76 354.357C217.168 354.018 217.521 353.657 217.847 353.274C218.041 353.623 218.251 353.962 218.492 354.295C219.079 355.098 219.81 355.827 220.684 356.384C221.587 356.955 222.48 357.24 223.459 357.465C224.091 357.58 224.712 357.647 225.364 357.605C225.287 357.81 225.198 358.011 225.129 358.219C224.955 358.797 224.806 359.383 224.716 359.983C224.611 360.577 224.591 361.191 224.639 361.792C224.688 362.389 224.836 363.001 225.166 363.491C224.958 362.941 224.989 362.353 225.041 361.796C225.107 361.234 225.246 360.687 225.426 360.153C225.783 359.085 226.304 358.076 226.877 357.103L227.506 356.034L226.14 356.228Z" fill="#394252"/>
<path d="M75.498 415.323H426.201C428.654 415.323 430.642 413.335 430.642 410.882V400.081H71.057V410.882C71.057 413.335 73.046 415.323 75.498 415.323Z" fill="#394252"/>
<path opacity="0.2" d="M71.058 407.702L430.643 407.702V400.081L71.058 400.081V407.702Z" fill="black"/>
<path d="M63.517 402.069H438.183C440.554 402.069 442.477 400.147 442.477 397.775C442.477 395.404 440.554 393.481 438.183 393.481H63.517C61.146 393.481 59.224 395.403 59.224 397.775C59.223 400.146 61.146 402.069 63.517 402.069Z" fill="#394252"/>
<path d="M156.779 386.648V390.823C156.779 392.704 159.045 393.475 160.926 393.475H307.508C309.366 393.475 311.582 392.704 311.582 390.823V386.648H156.779Z" fill="#262D38"/>
<path opacity="0.4" d="M156.779 386.648V390.823C156.779 392.704 159.045 393.475 160.926 393.475H307.508C309.366 393.475 311.582 392.704 311.582 390.823V386.648H156.779Z" fill="white"/>
<path opacity="0.2" d="M206.716 386.648V390.823C206.716 392.704 208.949 393.475 210.83 393.475H307.509C309.367 393.475 311.583 392.704 311.583 390.823V386.648H206.716Z" fill="black"/>
<path d="M336.109 307.331L318.659 386.48C318.092 389.086 315.554 390.978 312.993 390.978H217.674C215.135 390.978 213.504 388.612 214.093 386.006L231.521 307.46C232.11 304.877 234.626 303.588 237.186 303.588H332.506C335.067 303.589 336.676 304.748 336.109 307.331Z" fill="#262D38"/>
<path opacity="0.4" d="M336.109 307.331L318.659 386.48C318.092 389.086 315.554 390.978 312.993 390.978H220.915C218.354 390.978 216.745 388.612 217.311 386.006L234.762 307.46C235.329 304.877 237.866 303.588 240.428 303.588H332.507C335.067 303.589 336.676 304.748 336.109 307.331Z" fill="white"/>
<path opacity="0.2" d="M289.112 347.561V347.584C289.112 354.36 281.846 359.868 276.52 359.868C271.194 359.868 268.037 354.361 269.556 347.584C271.075 340.944 276.374 335.527 281.586 335.323C280.067 342.099 283.32 347.584 288.624 347.584C288.737 347.583 289.112 347.583 289.112 347.561Z" fill="black"/>
</svg>
